<?xml version="1.0" encoding="UTF-8"?>
<svg id="Livello_2" xmlns="http://www.w3.org/2000/svg" viewBox="0 0 367.36 203.29">
  <defs>
    <style>
      .cls-1 {
        fill: #fff;
      }
    </style>
  </defs>
  <g id="Livello_1-2" data-name="Livello_1">
    <g>
      <g>
        <path class="cls-1" d="M0,136.26c0-.87.32-1.62.95-2.26.63-.63,1.4-.95,2.28-.95s1.67.32,2.3.95c.63.62.95,1.38.95,2.28s-.32,1.67-.95,2.3c-.62.63-1.38.95-2.28.95s-1.67-.32-2.3-.95-.95-1.41-.95-2.33ZM5.74,145.23v21.57H.75v-21.57h4.98Z"/>
        <path class="cls-1" d="M12.05,145.23h5v1.99c1.74-1.73,3.71-2.59,5.89-2.59,2.51,0,4.47.79,5.87,2.37,1.21,1.34,1.82,3.54,1.82,6.58v13.22h-5v-12.05c0-2.13-.3-3.59-.89-4.41-.58-.83-1.62-1.24-3.14-1.24-1.65,0-2.83.55-3.52,1.64-.68,1.08-1.02,2.96-1.02,5.65v10.41h-5v-21.57Z"/>
        <path class="cls-1" d="M36.67,166.8l7.2-36.76,11.74,26.57,12.16-26.57,6.47,36.76h-5.29l-3.3-20.64-10.12,22.21-9.83-22.23-3.68,20.66h-5.34Z"/>
        <path class="cls-1" d="M100.33,137.46h-13.71v8.21h13.31v4.85h-13.31v11.43h13.71v4.85h-18.87v-34.19h18.87v4.85Z"/>
        <path class="cls-1" d="M116.54,137.46v29.34h-5.16v-29.34h-7.86v-4.85h20.86v4.85h-7.84Z"/>
        <path class="cls-1" d="M147.21,158.5h-14.64l-3.81,8.3h-5.56l16.92-36.34,16.32,36.34h-5.65l-3.59-8.3ZM145.11,153.65l-5.07-11.62-5.31,11.62h10.38Z"/>
        <path class="cls-1" d="M159.52,166.8l7.2-36.76,11.74,26.57,12.16-26.57,6.46,36.76h-5.29l-3.3-20.64-10.12,22.21-9.83-22.23-3.68,20.66h-5.34Z"/>
        <path class="cls-1" d="M202.61,149.55c0-4.81,1.76-8.95,5.29-12.4,3.51-3.45,7.74-5.18,12.67-5.18s9.05,1.74,12.53,5.23c3.5,3.48,5.25,7.67,5.25,12.55s-1.76,9.09-5.27,12.51c-3.53,3.44-7.79,5.16-12.78,5.16-4.41,0-8.38-1.53-11.89-4.58-3.87-3.38-5.8-7.81-5.8-13.29ZM207.81,149.62c0,3.78,1.27,6.89,3.81,9.32,2.52,2.44,5.44,3.65,8.75,3.65,3.59,0,6.61-1.24,9.08-3.72,2.46-2.51,3.7-5.57,3.7-9.17s-1.22-6.7-3.65-9.17c-2.42-2.48-5.42-3.72-8.99-3.72s-6.56,1.24-9.01,3.72c-2.45,2.45-3.68,5.48-3.68,9.08Z"/>
        <path class="cls-1" d="M256.42,152.23l10.58,14.57h-6.31l-9.77-14h-.93v14h-5.16v-34.19h6.04c4.52,0,7.78.85,9.79,2.55,2.21,1.89,3.32,4.38,3.32,7.49,0,2.42-.69,4.5-2.08,6.24s-3.22,2.86-5.49,3.34ZM250,148.31h1.64c4.89,0,7.33-1.87,7.33-5.6,0-3.5-2.38-5.25-7.13-5.25h-1.84v10.85Z"/>
        <path class="cls-1" d="M289.21,137.46h-11.91v8.21h11.49v4.85h-11.49v16.28h-5.16v-34.19h17.07v4.85Z"/>
        <path class="cls-1" d="M293.53,149.55c0-4.81,1.76-8.95,5.29-12.4,3.51-3.45,7.74-5.18,12.67-5.18s9.05,1.74,12.53,5.23c3.5,3.48,5.25,7.67,5.25,12.55s-1.76,9.09-5.27,12.51c-3.53,3.44-7.79,5.16-12.78,5.16-4.41,0-8.38-1.53-11.89-4.58-3.87-3.38-5.8-7.81-5.8-13.29ZM298.74,149.62c0,3.78,1.27,6.89,3.81,9.32,2.52,2.44,5.44,3.65,8.75,3.65,3.59,0,6.61-1.24,9.08-3.72,2.46-2.51,3.7-5.57,3.7-9.17s-1.22-6.7-3.65-9.17c-2.42-2.48-5.42-3.72-8.99-3.72s-6.56,1.24-9.01,3.72c-2.45,2.45-3.68,5.48-3.68,9.08Z"/>
        <path class="cls-1" d="M355.09,137.7l-4.19,2.48c-.78-1.36-1.53-2.24-2.24-2.66-.74-.47-1.69-.71-2.86-.71-1.43,0-2.62.41-3.56,1.22-.95.8-1.42,1.8-1.42,3.01,0,1.67,1.24,3.01,3.72,4.03l3.41,1.39c2.77,1.12,4.8,2.49,6.09,4.11,1.28,1.62,1.93,3.6,1.93,5.95,0,3.14-1.05,5.74-3.14,7.79-2.11,2.07-4.73,3.1-7.86,3.1-2.97,0-5.42-.88-7.35-2.64-1.91-1.76-3.09-4.23-3.57-7.42l5.23-1.15c.24,2.01.65,3.4,1.24,4.16,1.06,1.48,2.61,2.21,4.65,2.21,1.61,0,2.94-.54,4.01-1.62,1.06-1.08,1.59-2.44,1.59-4.1,0-.66-.09-1.27-.28-1.83s-.47-1.06-.86-1.53c-.39-.46-.9-.9-1.52-1.31-.62-.41-1.36-.79-2.21-1.16l-3.3-1.37c-4.68-1.98-7.02-4.87-7.02-8.68,0-2.57.98-4.72,2.95-6.44,1.96-1.74,4.41-2.61,7.33-2.61,3.94,0,7.02,1.92,9.23,5.76Z"/>
        <path class="cls-1" d="M367.36,132.61v34.19h-5.16v-34.19h5.16Z"/>
      </g>
      <g>
        <polygon class="cls-1" points="253.49 110.03 225.04 110.03 215.55 46.7 189.58 110.03 178.19 110.03 155.7 52.28 155.7 52.27 159.91 24.17 160.36 21.16 163.26 1.81 170.53 21.16 171.66 24.17 184.61 58.66 197.49 24.17 198.61 21.16 206.5 0 234.81 0 253.49 110.03"/>
        <polygon class="cls-1" points="160.52 0 157.35 21.16 130.68 21.16 134.27 0 160.52 0"/>
        <polygon class="cls-1" points="156.9 24.17 144.05 110.03 115.59 110.03 130.17 24.17 156.9 24.17"/>
      </g>
      <g>
        <path class="cls-1" d="M78.09,191.97c-.14-2.16-.31-4.82-.29-6.4h-.06c-.52,1.57-1.11,3.25-1.94,5.39l-3.03,7.85h-.71l-2.84-7.67c-.83-2.25-1.44-3.98-1.87-5.57h-.05c-.04,1.7-.14,4.21-.31,6.6l-.46,6.64h-1l1.06-14.44h1.17l3.11,8.32c.68,1.84,1.19,3.29,1.6,4.68h.05c.37-1.33.88-2.73,1.62-4.67l3.22-8.34h1.22l.97,14.44h-1.01l-.42-6.84Z"/>
        <path class="cls-1" d="M88.35,198.81l-.15-1.47h-.05c-.5.79-1.64,1.71-3.28,1.71-2.07,0-3.03-1.46-3.03-2.83,0-2.37,2.09-3.8,6.27-3.76v-.27c0-1.02-.2-3.05-2.63-3.03-.9,0-1.84.24-2.58.77l-.32-.74c.94-.64,2.08-.89,3.01-.89,2.97,0,3.54,2.23,3.54,4.07v4.01c0,.81.03,1.66.15,2.44h-.94ZM88.12,193.32c-2.24-.06-5.2.27-5.2,2.74,0,1.48.97,2.14,2.05,2.14,1.71,0,2.69-1.06,3.04-2.06.08-.22.11-.44.11-.62v-2.21Z"/>
        <path class="cls-1" d="M92.46,191.61c0-1.03-.03-2.09-.09-3.08h.94l.04,2.09h.06c.45-1.3,1.51-2.33,2.92-2.33.14,0,.29.02.42.05v.97c-.16-.03-.3-.03-.49-.03-1.41,0-2.42,1.23-2.7,2.88-.05.3-.09.64-.09.97v5.68h-1.02v-7.2Z"/>
        <path class="cls-1" d="M99.97,193.48h.04c.26-.32.67-.79,1-1.13l3.63-3.82h1.25l-4.15,4.26,4.73,6.02h-1.24l-4.2-5.39-1.05,1.1v4.29h-1.02v-15.21h1.02v9.88Z"/>
        <path class="cls-1" d="M108.41,193.57c0,3.28,1.79,4.58,3.91,4.58,1.5,0,2.28-.3,2.86-.58l.26.8c-.4.21-1.45.66-3.25.66-2.96,0-4.79-2.15-4.79-5.16,0-3.43,1.96-5.58,4.62-5.58,3.37,0,4.01,3.17,4.01,4.65,0,.29,0,.45-.03.63h-7.59ZM114.97,192.76c.03-1.43-.57-3.62-3.07-3.62-2.26,0-3.24,2.04-3.43,3.62h6.5Z"/>
        <path class="cls-1" d="M120.06,185.55v2.98h2.93v.82h-2.93v6.68c0,1.31.41,2.13,1.51,2.13.53,0,.91-.07,1.17-.16l.12.79c-.33.14-.8.25-1.42.25-.75,0-1.37-.24-1.77-.73-.47-.54-.63-1.4-.63-2.45v-6.5h-1.74v-.82h1.74v-2.65l1.02-.33Z"/>
        <path class="cls-1" d="M126.6,185.59c0,.48-.32.89-.86.89-.47,0-.79-.41-.79-.89s.36-.89.83-.89.82.4.82.89ZM125.26,198.81v-10.28h1.02v10.28h-1.02Z"/>
        <path class="cls-1" d="M129.74,190.99c0-.94-.03-1.65-.09-2.46h.95l.08,1.86h.04c.56-1.16,1.85-2.09,3.54-2.09.98,0,3.59.5,3.59,4.35v6.17h-1.02v-6.07c0-1.87-.72-3.57-2.85-3.57-1.45,0-2.68,1.03-3.08,2.37-.08.25-.14.59-.14.92v6.36h-1.02v-7.83Z"/>
        <path class="cls-1" d="M149.5,188.53c-.05.77-.09,1.58-.09,2.66v6.13c0,2.63-.54,3.94-1.41,4.76-.94.89-2.32,1.22-3.48,1.22s-2.49-.3-3.27-.88l.36-.82c.71.47,1.72.86,3.06.86,2.16,0,3.72-1.12,3.72-4.17v-1.45h-.04c-.54,1.04-1.74,1.99-3.58,1.99-2.58,0-4.41-2.25-4.41-5.05,0-3.59,2.35-5.47,4.63-5.47,2.02,0,3.04,1.11,3.45,1.97h.04l.06-1.74h.94ZM148.4,192.48c0-.37-.03-.69-.13-.99-.42-1.24-1.51-2.35-3.2-2.35-2.17,0-3.67,1.79-3.67,4.51,0,2.31,1.22,4.32,3.65,4.32,1.37,0,2.65-.85,3.17-2.33.12-.34.18-.72.18-1.09v-2.07Z"/>
        <path class="cls-1" d="M157.72,193.57c0,3.28,1.79,4.58,3.91,4.58,1.5,0,2.28-.3,2.86-.58l.26.8c-.4.21-1.45.66-3.25.66-2.96,0-4.79-2.15-4.79-5.16,0-3.43,1.96-5.58,4.62-5.58,3.37,0,4.01,3.17,4.01,4.65,0,.29,0,.45-.03.63h-7.59ZM164.28,192.76c.03-1.43-.57-3.62-3.07-3.62-2.26,0-3.24,2.04-3.43,3.62h6.5Z"/>
        <path class="cls-1" d="M182.45,198.31c-.73.37-2.12.73-3.89.73-3.49,0-6.83-2.23-6.83-7.36,0-4.29,2.76-7.53,7.32-7.53,1.84,0,2.9.41,3.35.63l-.33.86c-.73-.36-1.78-.63-3-.63-3.89,0-6.27,2.53-6.27,6.68,0,3.93,2.24,6.45,6.1,6.45,1.24,0,2.44-.25,3.26-.67l.31.82Z"/>
        <path class="cls-1" d="M193.51,193.57c0,3.84-2.63,5.47-4.92,5.47-2.66,0-4.71-2.07-4.71-5.3,0-3.52,2.31-5.46,4.86-5.46,2.84,0,4.77,2.13,4.77,5.28ZM184.91,193.7c0,2.57,1.64,4.5,3.75,4.5s3.82-1.94,3.82-4.58c0-1.88-1.06-4.48-3.77-4.48s-3.81,2.35-3.81,4.56Z"/>
        <path class="cls-1" d="M196.13,190.99c0-.94-.03-1.65-.09-2.46h.95l.07,1.82h.04c.66-1.18,1.64-2.06,3.34-2.06,1.43,0,2.51.95,2.95,2.25h.04c.29-.61.67-1.07,1.05-1.39.66-.55,1.36-.86,2.46-.86,1,0,3.35.57,3.35,4.46v6.06h-1.02v-5.96c0-2.31-.89-3.69-2.68-3.69-1.28,0-2.3.95-2.7,2.04-.1.29-.18.64-.18,1.02v6.59h-1.02v-6.43c0-1.85-.89-3.22-2.55-3.22-1.38,0-2.47,1.12-2.85,2.32-.09.29-.16.64-.16.99v6.34h-1.02v-7.83Z"/>
        <path class="cls-1" d="M221.59,196.3c0,.92.03,1.72.09,2.51h-.95l-.07-1.83h-.04c-.52.95-1.69,2.06-3.53,2.06-1.31,0-3.5-.65-3.5-4.53v-5.99h1.02v5.78c0,2.24.69,3.85,2.73,3.85,1.49,0,2.6-1.05,3.03-2.09.11-.32.2-.72.2-1.14v-6.41h1.02v7.77Z"/>
        <path class="cls-1" d="M225.04,190.99c0-.94-.03-1.65-.09-2.46h.95l.08,1.86h.04c.56-1.16,1.85-2.09,3.54-2.09.98,0,3.59.5,3.59,4.35v6.17h-1.02v-6.07c0-1.87-.72-3.57-2.85-3.57-1.45,0-2.68,1.03-3.08,2.37-.08.25-.14.59-.14.92v6.36h-1.02v-7.83Z"/>
        <path class="cls-1" d="M237.86,185.59c0,.48-.32.89-.86.89-.47,0-.79-.41-.79-.89s.36-.89.83-.89.82.4.82.89ZM236.53,198.81v-10.28h1.02v10.28h-1.02Z"/>
        <path class="cls-1" d="M248.1,198.37c-.44.22-1.52.67-3,.67-2.96,0-4.94-2.16-4.94-5.25,0-3.27,2.23-5.5,5.3-5.5,1.26,0,2.3.36,2.7.64l-.36.85c-.5-.29-1.29-.6-2.44-.6-2.76,0-4.17,2.11-4.17,4.53,0,2.69,1.7,4.45,4.07,4.45,1.23,0,2.02-.35,2.57-.59l.28.8Z"/>
        <path class="cls-1" d="M256.14,198.81l-.15-1.47h-.05c-.5.79-1.64,1.71-3.28,1.71-2.07,0-3.03-1.46-3.03-2.83,0-2.37,2.09-3.8,6.27-3.76v-.27c0-1.02-.2-3.05-2.63-3.03-.9,0-1.84.24-2.58.77l-.32-.74c.94-.64,2.08-.89,3.02-.89,2.97,0,3.54,2.23,3.54,4.07v4.01c0,.81.03,1.66.15,2.44h-.94ZM255.91,193.32c-2.24-.06-5.2.27-5.2,2.74,0,1.48.97,2.14,2.05,2.14,1.71,0,2.69-1.06,3.04-2.06.08-.22.11-.44.11-.62v-2.21Z"/>
        <path class="cls-1" d="M258.87,198.19l5.54-7.3c.38-.5.77-.97,1.18-1.48v-.04h-6.27v-.84h7.5l-.02.69-5.54,7.29c-.36.49-.72.94-1.1,1.42v.04h6.68v.84h-7.98v-.62Z"/>
        <path class="cls-1" d="M270.23,185.59c0,.48-.32.89-.86.89-.47,0-.79-.41-.79-.89s.36-.89.83-.89.82.4.82.89ZM268.89,198.81v-10.28h1.02v10.28h-1.02Z"/>
        <path class="cls-1" d="M282.16,193.57c0,3.84-2.63,5.47-4.92,5.47-2.66,0-4.71-2.07-4.71-5.3,0-3.52,2.31-5.46,4.86-5.46,2.84,0,4.77,2.13,4.77,5.28ZM273.55,193.7c0,2.57,1.64,4.5,3.75,4.5s3.82-1.94,3.82-4.58c0-1.88-1.06-4.48-3.77-4.48s-3.81,2.35-3.81,4.56Z"/>
        <path class="cls-1" d="M284.77,190.99c0-.94-.03-1.65-.08-2.46h.95l.08,1.86h.04c.56-1.16,1.85-2.09,3.54-2.09.98,0,3.59.5,3.59,4.35v6.17h-1.02v-6.07c0-1.87-.72-3.57-2.85-3.57-1.45,0-2.68,1.03-3.08,2.37-.08.25-.14.59-.14.92v6.36h-1.02v-7.83Z"/>
        <path class="cls-1" d="M296.41,193.57c0,3.28,1.79,4.58,3.91,4.58,1.5,0,2.28-.3,2.86-.58l.26.8c-.4.21-1.45.66-3.25.66-2.96,0-4.79-2.15-4.79-5.16,0-3.43,1.97-5.58,4.62-5.58,3.37,0,4.01,3.17,4.01,4.65,0,.29,0,.45-.03.63h-7.59ZM302.96,192.76c.03-1.43-.57-3.62-3.07-3.62-2.26,0-3.24,2.04-3.43,3.62h6.5Z"/>
      </g>
    </g>
  </g>
</svg>